<?xml version="1.0" encoding="utf-8"?>
<svg viewBox="0 0 512 512" xmlns="http://www.w3.org/2000/svg">
  <rect x="8.959" y="7.648" width="493.041" height="494.352" style="fill: rgb(255, 255, 255);"/>
  <path d="M 475.473 176.827 C 498.783 241.443 491.998 306.443 464.837 360.308 C 452.432 385.56 436.724 409.448 414.692 427.026 L 410.331 429.558 C 390.025 438.488 347.499 437.804 315.366 411.888 C 282.373 385.279 256.684 339 244.978 286.642 C 235.427 285.522 226.68 283.484 218.736 280.528 L 218.736 344.767 C 219.035 352.201 219.697 358.228 220.73 362.847 C 221.777 367.449 224.387 371.315 228.549 374.447 C 232.715 377.559 239.107 379.116 247.733 379.116 L 250.409 379.116 C 253.381 379.116 255.544 379.641 256.893 380.692 C 258.221 381.724 259.033 384.32 259.33 388.484 C 259.33 391.159 258.668 393.459 257.338 395.384 C 255.992 397.324 253.977 398.297 251.302 398.297 C 232.268 397.405 213.679 396.959 195.539 396.959 C 179.479 396.959 161.785 397.405 142.453 398.297 C 140.075 398.297 138.142 397.324 136.655 395.384 C 135.168 393.459 134.424 391.159 134.424 388.484 C 134.721 384.024 135.681 381.346 137.31 380.454 C 138.954 379.56 141.86 379.116 146.023 379.116 C 154.647 379.116 161.042 377.559 165.205 374.447 C 169.368 371.315 171.964 367.449 172.996 362.847 C 174.048 358.228 174.722 352.201 175.019 344.767 L 175.019 167.669 C 174.722 160.232 174.048 154.216 172.996 149.615 C 171.964 144.997 169.368 141.12 165.205 137.987 C 161.042 134.873 154.647 133.319 146.023 133.319 L 143.347 133.319 C 140.373 133.319 138.222 132.803 136.892 131.771 C 135.546 130.722 134.721 128.113 134.424 123.948 C 134.424 121.273 135.168 118.963 136.655 117.021 C 138.142 115.096 140.075 114.136 142.453 114.136 C 161.785 115.028 179.628 115.474 195.985 115.474 L 262.898 115.474 C 288.773 115.474 313.823 120.826 338.052 131.534 C 362.297 142.239 374.422 163.651 374.422 195.771 C 374.422 213.614 369.07 229.526 358.362 243.502 C 347.657 257.482 333.759 268.335 316.669 276.069 C 303.173 282.168 289.264 285.861 274.942 287.149 C 283.84 321.007 300.924 352.217 325.076 371.696 C 353.728 394.804 385.471 394.354 408.348 370.516 C 410.236 368.548 412.03 366.47 413.729 364.29 C 416.15 360.796 418.435 357.256 420.585 353.676 L 420.634 353.676 C 487.569 242.18 424.071 91.76 289.76 67.683 C 222.48 55.622 153.877 80.37 109.792 132.605 C 14.802 245.157 77.274 418.331 222.241 444.319 C 246.972 448.752 271.883 448.212 295.688 443.161 C 298.012 442.443 300.501 442.053 303.09 442.053 C 315.869 442.053 326.227 451.546 326.227 463.255 C 326.227 474.176 317.218 483.169 305.638 484.331 C 277.055 490.491 246.455 491.326 214.831 485.657 C 132.782 470.948 64.814 413.585 36.528 335.174 C -24.421 166.224 120.381 -5.348 297.17 26.344 C 379.218 41.053 447.187 98.416 475.473 176.827 Z M 250.409 267.592 C 261.114 267.592 272.198 265.442 283.657 261.139 C 295.097 256.818 304.832 249.383 312.862 238.835 C 320.891 228.267 324.907 214.358 324.907 197.109 C 324.907 170.939 316.579 153.541 299.924 144.917 C 283.272 136.291 265.577 131.979 246.84 131.979 C 239.107 131.979 233.308 132.803 229.443 134.448 C 225.576 136.073 222.832 139.266 221.205 144.023 C 219.559 148.783 218.736 156.218 218.736 166.33 L 218.736 262.684 C 225.875 265.956 236.43 267.592 250.409 267.592 Z" style="fill: rgb(25, 25, 112);"/>
</svg>