<?xml version="1.0" encoding="utf-8"?>
<svg viewBox="0 0 64 64" width="64px" height="64px" xmlns="http://www.w3.org/2000/svg">
  <path d="M 59.241 22.173 C 62.135 30.193 61.292 38.261 57.921 44.947 C 56.381 48.081 54.432 51.046 51.697 53.228 L 51.156 53.542 C 48.635 54.651 43.357 54.566 39.368 51.349 C 35.273 48.046 32.084 42.302 30.631 35.803 C 29.446 35.664 28.36 35.411 27.374 35.044 L 27.374 43.018 C 27.411 43.941 27.494 44.689 27.622 45.262 C 27.752 45.833 28.076 46.313 28.592 46.702 C 29.109 47.088 29.903 47.281 30.973 47.281 L 31.306 47.281 C 31.674 47.281 31.943 47.346 32.11 47.477 C 32.275 47.605 32.376 47.927 32.413 48.444 C 32.413 48.776 32.331 49.062 32.166 49.301 C 31.999 49.541 31.748 49.662 31.416 49.662 C 29.054 49.551 26.747 49.496 24.495 49.496 C 22.502 49.496 20.305 49.551 17.906 49.662 C 17.611 49.662 17.371 49.541 17.186 49.301 C 17.001 49.062 16.909 48.776 16.909 48.444 C 16.946 47.891 17.065 47.558 17.267 47.447 C 17.471 47.336 17.832 47.281 18.349 47.281 C 19.419 47.281 20.213 47.088 20.73 46.702 C 21.247 46.313 21.569 45.833 21.697 45.262 C 21.827 44.689 21.911 43.941 21.948 43.018 L 21.948 21.036 C 21.911 20.113 21.827 19.366 21.697 18.795 C 21.569 18.222 21.247 17.74 20.73 17.352 C 20.213 16.965 19.419 16.772 18.349 16.772 L 18.017 16.772 C 17.648 16.772 17.381 16.708 17.215 16.58 C 17.048 16.45 16.946 16.126 16.909 15.609 C 16.909 15.277 17.001 14.99 17.186 14.749 C 17.371 14.51 17.611 14.391 17.906 14.391 C 20.305 14.502 22.52 14.557 24.55 14.557 L 32.856 14.557 C 36.067 14.557 39.177 15.222 42.184 16.551 C 45.193 17.879 46.698 20.537 46.698 24.524 C 46.698 26.739 46.034 28.714 44.705 30.448 C 43.376 32.184 41.651 33.531 39.53 34.491 C 37.855 35.248 36.128 35.706 34.351 35.866 C 35.455 40.069 37.576 43.943 40.573 46.36 C 44.13 49.229 48.07 49.173 50.909 46.214 C 51.144 45.97 51.366 45.712 51.577 45.441 C 51.878 45.007 52.162 44.568 52.428 44.124 L 52.434 44.124 C 60.743 30.284 52.861 11.614 36.19 8.625 C 27.839 7.128 19.324 10.2 13.852 16.684 C 2.061 30.654 9.815 52.149 27.809 55.375 C 30.879 55.925 33.971 55.858 36.926 55.231 C 37.214 55.142 37.523 55.093 37.845 55.093 C 39.431 55.093 40.716 56.272 40.716 57.725 C 40.716 59.08 39.598 60.197 38.161 60.341 C 34.613 61.106 30.815 61.209 26.89 60.506 C 16.705 58.68 8.269 51.56 4.758 41.827 C -2.807 20.856 15.166 -0.44 37.11 3.494 C 47.294 5.32 55.73 12.44 59.241 22.173 Z M 31.306 33.439 C 32.634 33.439 34.01 33.172 35.432 32.638 C 36.852 32.101 38.061 31.178 39.057 29.869 C 40.054 28.557 40.553 26.831 40.553 24.69 C 40.553 21.442 39.519 19.282 37.452 18.212 C 35.385 17.141 33.188 16.606 30.863 16.606 C 29.903 16.606 29.183 16.708 28.703 16.912 C 28.223 17.114 27.883 17.51 27.681 18.101 C 27.476 18.692 27.374 19.614 27.374 20.87 L 27.374 32.829 C 28.26 33.236 29.57 33.439 31.306 33.439 Z" style="fill: rgb(25, 25, 112);"/>
</svg>